<svg width="120" height="60" viewBox="0 0 120 60" xmlns="http://www.w3.org/2000/svg">
  <!-- Background -->
  <rect width="120" height="60" fill="#ffffff" stroke="#e5e7eb" stroke-width="1" rx="4"/>

  <!-- Cat silhouette (Kater = male cat) -->
  <ellipse cx="22" cy="35" rx="8" ry="6" fill="#8b4513"/>
  <circle cx="22" cy="28" r="5" fill="#8b4513"/>

  <!-- Cat ears -->
  <path d="M18,25 L20,20 L22,25 Z" fill="#8b4513"/>
  <path d="M22,25 L24,20 L26,25 Z" fill="#8b4513"/>

  <!-- Cat features -->
  <circle cx="20" cy="27" r="0.8" fill="#000000"/>
  <circle cx="24" cy="27" r="0.8" fill="#000000"/>
  <path d="M19,30 Q22,32 25,30" stroke="#000000" stroke-width="1" fill="none"/>

  <!-- Coffee cup -->
  <rect x="32" y="35" width="8" height="6" fill="#d2691e" rx="1"/>
  <ellipse cx="36" cy="35" rx="4" ry="1" fill="#8b4513"/>
  <path d="M40,37 Q42,37 42,39 Q42,41 40,41" stroke="#d2691e" stroke-width="1.5" fill="none"/>

  <!-- Text -->
  <text x="45" y="20" font-family="serif" font-size="11" font-weight="700" fill="#8b4513">
    Grand Café
  </text>
  <text x="45" y="33" font-family="serif" font-size="13" font-weight="800" fill="#2c1810">
    DE KATER
  </text>
  <text x="45" y="46" font-family="Arial, sans-serif" font-size="7" fill="#6b7280">
    Horeca partner
  </text>
</svg>
