<svg width="120" height="60" viewBox="0 0 120 60" xmlns="http://www.w3.org/2000/svg">
  <!-- Background -->
  <rect width="120" height="60" fill="#ffffff" stroke="#e5e7eb" stroke-width="1" rx="4"/>

  <!-- Local community symbol - houses -->
  <rect x="12" y="30" width="8" height="12" fill="#10b981" stroke="#059669" stroke-width="1"/>
  <path d="M10,30 L16,22 L22,30 Z" fill="#059669"/>

  <rect x="20" y="32" width="8" height="10" fill="#10b981" stroke="#059669" stroke-width="1"/>
  <path d="M18,32 L24,26 L30,32 Z" fill="#059669"/>

  <rect x="28" y="28" width="8" height="14" fill="#10b981" stroke="#059669" stroke-width="1"/>
  <path d="M26,28 L32,20 L38,28 Z" fill="#059669"/>

  <!-- Windows and doors -->
  <rect x="14" y="35" width="2" height="3" fill="#ffffff"/>
  <rect x="17" y="35" width="2" height="3" fill="#ffffff"/>
  <rect x="22" y="37" width="2" height="3" fill="#ffffff"/>
  <rect x="25" y="37" width="2" height="3" fill="#ffffff"/>
  <rect x="30" y="35" width="2" height="3" fill="#ffffff"/>
  <rect x="33" y="35" width="2" height="3" fill="#ffffff"/>

  <!-- Partnership handshake -->
  <circle cx="45" cy="25" r="2" fill="#6b7280"/>
  <circle cx="50" cy="25" r="2" fill="#6b7280"/>
  <path d="M43,27 Q47.5,29 52,27" stroke="#10b981" stroke-width="2" fill="none"/>

  <!-- Text -->
  <text x="55" y="22" font-family="Arial, sans-serif" font-size="10" font-weight="700" fill="#10b981">
    Local
  </text>
  <text x="55" y="33" font-family="Arial, sans-serif" font-size="11" font-weight="800" fill="#059669">
    Partner
  </text>
  <text x="55" y="46" font-family="Arial, sans-serif" font-size="7" fill="#6b7280">
    Lokale samenwerking
  </text>
</svg>
